<?xml version="1.0" encoding="UTF-8" standalone="no"?>
<!DOCTYPE svg PUBLIC "-//W3C//DTD SVG 1.1//EN" "http://www.w3.org/Graphics/SVG/1.1/DTD/svg11.dtd">
<svg version="1.1" xmlns="http://www.w3.org/2000/svg" xmlns:xlink="http://www.w3.org/1999/xlink" preserveAspectRatio="xMidYMid meet" viewBox="0 0 640 640" width="640" height="640"><defs><path d="M333.12 34.99L339.58 35.64L345.96 36.55L352.25 37.71L358.45 39.11L364.56 40.75L370.58 42.62L376.48 44.71L382.28 47.03L387.97 49.57L393.53 52.32L398.97 55.27L404.29 58.43L409.46 61.78L414.5 65.33L419.39 69.06L424.13 72.97L428.72 77.06L433.14 81.32L437.4 85.74L441.49 90.33L445.4 95.07L449.13 99.96L452.68 105L456.03 110.17L459.19 115.49L462.14 120.93L464.89 126.49L467.43 132.18L469.75 137.98L471.84 143.88L473.71 149.9L475.35 156.01L476.75 162.21L477.91 168.5L478.81 174.88L479.47 181.34L479.87 187.86L480 194.46L479.99 196.42L479.95 198.37L479.89 200.32L479.81 202.26L479.71 204.2L479.58 206.13L479.43 208.05L479.26 209.97L479.06 211.88L478.84 213.78L478.6 215.68L478.34 217.56L478.06 219.45L477.75 221.32L477.43 223.19L477.08 225.05L476.71 226.9L476.32 228.75L475.9 230.58L475.47 232.41L475.01 234.23L474.54 236.05L474.04 237.85L473.53 239.64L472.99 241.43L472.43 243.21L471.86 244.98L471.26 246.74L470.64 248.49L470.01 250.23L469.35 251.96L468.68 253.68L467.98 255.39L467.27 257.09L466.54 258.78L465.78 260.46L465.01 262.14L464.23 263.8L463.42 265.45L462.59 267.08L320 546.46L319.73 545.94L318.96 544.42L317.7 541.94L315.97 538.57L313.82 534.35L311.26 529.34L308.33 523.59L305.04 517.15L301.43 510.08L297.53 502.43L293.35 494.24L288.93 485.58L284.3 476.5L279.47 467.04L274.48 457.27L269.36 447.23L264.13 436.98L258.81 426.56L253.44 416.04L248.05 405.47L242.65 394.89L237.28 384.36L231.96 373.94L226.72 363.67L221.59 353.61L216.59 343.81L211.75 334.33L207.09 325.21L202.66 316.51L198.46 308.28L194.53 300.58L190.9 293.46L187.59 286.97L184.62 281.16L182.03 276.08L179.85 271.79L178.09 268.35L176.79 265.8L175.98 264.19L175.67 263.58L174.93 262.01L174.2 260.43L173.49 258.84L172.79 257.24L172.11 255.63L171.45 254.01L170.81 252.38L170.18 250.74L169.58 249.1L168.98 247.44L168.41 245.78L167.86 244.11L167.32 242.43L166.8 240.75L166.3 239.05L165.82 237.35L165.35 235.64L164.9 233.92L164.48 232.2L164.07 230.46L163.68 228.72L163.31 226.98L162.96 225.22L162.62 223.46L162.31 221.7L162.02 219.92L161.74 218.14L161.49 216.35L161.25 214.56L161.04 212.76L160.84 210.96L160.67 209.15L160.51 207.33L160.38 205.51L160.26 203.68L160.17 201.84L160.09 200.01L160.04 198.16L160.01 196.31L160 194.46L160.13 187.86L160.53 181.34L161.19 174.88L162.09 168.5L163.25 162.21L164.65 156.01L166.29 149.9L168.16 143.88L170.25 137.98L172.57 132.18L175.11 126.49L177.86 120.93L180.82 115.49L183.97 110.17L187.33 105L190.87 99.96L194.6 95.07L198.52 90.33L202.61 85.74L206.87 81.32L211.29 77.06L215.88 72.97L220.62 69.06L225.51 65.33L230.55 61.78L235.72 58.43L241.03 55.27L246.47 52.32L252.04 49.57L257.72 47.03L263.52 44.71L269.43 42.62L275.44 40.75L281.55 39.11L287.76 37.71L294.05 36.55L300.42 35.64L306.88 34.99L313.41 34.59L320 34.46L326.6 34.59L333.12 34.99ZM312.13 98.78L308.25 99.17L304.43 99.72L300.65 100.41L296.93 101.25L293.26 102.23L289.66 103.36L286.11 104.61L282.63 106.01L279.22 107.53L275.88 109.18L272.62 110.95L269.43 112.85L266.33 114.86L263.31 116.99L260.37 119.23L257.53 121.57L254.77 124.03L252.12 126.58L249.56 129.24L247.11 131.99L244.76 134.84L242.52 137.77L240.4 140.79L238.38 143.9L236.49 147.09L234.72 150.35L233.07 153.69L231.54 157.1L230.15 160.58L228.89 164.12L227.77 167.73L226.79 171.4L225.95 175.12L225.26 178.89L224.71 182.72L224.32 186.59L224.08 190.5L224 194.46L224.08 198.42L224.32 202.33L224.71 206.2L225.26 210.03L225.95 213.8L226.79 217.52L227.77 221.19L228.89 224.8L230.15 228.34L231.54 231.82L233.07 235.23L234.72 238.57L236.49 241.83L238.38 245.02L240.4 248.13L242.52 251.15L244.76 254.08L247.11 256.93L249.56 259.68L252.12 262.33L254.77 264.89L257.53 267.34L260.37 269.69L263.31 271.93L266.33 274.06L269.43 276.07L272.62 277.97L275.88 279.74L279.22 281.39L282.63 282.91L286.11 284.3L289.66 285.56L293.26 286.69L296.93 287.67L300.65 288.51L304.43 289.2L308.25 289.75L312.13 290.14L316.04 290.38L320 290.46L323.96 290.38L327.87 290.14L331.74 289.75L335.57 289.2L339.34 288.51L343.06 287.67L346.73 286.69L350.34 285.56L353.88 284.3L357.36 282.91L360.77 281.39L364.11 279.74L367.37 277.97L370.56 276.07L373.67 274.06L376.69 271.93L379.62 269.69L382.47 267.34L385.22 264.89L387.88 262.33L390.43 259.68L392.88 256.93L395.23 254.08L397.47 251.15L399.6 248.13L401.61 245.02L403.51 241.83L405.28 238.57L406.93 235.23L408.45 231.82L409.85 228.34L411.1 224.8L412.23 221.19L413.21 217.52L414.05 213.8L414.74 210.03L415.29 206.2L415.68 202.33L415.92 198.42L416 194.46L415.92 190.5L415.68 186.59L415.29 182.72L414.74 178.89L414.05 175.12L413.21 171.4L412.23 167.73L411.1 164.12L409.85 160.58L408.45 157.1L406.93 153.69L405.28 150.35L403.51 147.09L401.61 143.9L399.6 140.79L397.47 137.77L395.23 134.84L392.88 131.99L390.43 129.24L387.88 126.58L385.22 124.03L382.47 121.57L379.62 119.23L376.69 116.99L373.67 114.86L370.56 112.85L367.37 110.95L364.11 109.18L360.77 107.53L357.36 106.01L353.88 104.61L350.34 103.36L346.73 102.23L343.06 101.25L339.34 100.41L335.57 99.72L331.74 99.17L327.87 98.78L323.96 98.54L320 98.46L316.04 98.54L312.13 98.78Z" id="bj9xJyEWp"></path></defs><g><g><g><use xlink:href="#bj9xJyEWp" opacity="1" fill="#951818" fill-opacity="1"></use><g><use xlink:href="#bj9xJyEWp" opacity="1" fill-opacity="0" stroke="#000000" stroke-width="10" stroke-opacity="1"></use></g></g></g></g></svg>